<?xml version="1.0" standalone="no"?><!DOCTYPE svg PUBLIC "-//W3C//DTD SVG 20010904//EN" "http://www.w3.org/TR/2001/REC-SVG-20010904/DTD/svg10.dtd"><svg xmlns="http://www.w3.org/2000/svg" version="1.0" width="75.000000pt" height="75.000000pt" viewBox="0 0 75.000000 75.000000" preserveAspectRatio="xMidYMid meet">

<g transform="translate(0.000000,75.000000) scale(0.100000,-0.100000)" fill="#3a4d39" stroke="none">
<path d="M0 375 l0 -375 375 0 375 0 0 375 0 375 -375 0 -375 0 0 -375z m430 187 l65 -38 3 -82 3 -81 -53 -30 -53 -31 -5 83 -5 82 -62 35 c-34 19 -63 38 -63 41 0 8 81 58 95 58 6 1 39 -16 75 -37z m-57 -410 c-1 -2 -25 9 -53 25 l-51 28 3 94 3 95 45 26 45 26 5 -145 c3 -80 4 -148 3 -149z"/>
</g>
</svg>